# xmcd CD database file
#
# Track frame offsets:
#	150
#	21049
#	35998
#	53313
#	61770
#	80791
#	107897
#	128518
#	144212
#	162861
#	208114
#	226706
#	244596
#	267459
#	285340
#	304124
#
# Disc length: 4337 seconds
#
# Revision: 0
# Processed by: cddbd v1.5.2PL0 Copyright (c) Steve Scherf et al.
# Submitted via: CDex 1.70beta2
#
DISCID=d010ef10
DTITLE=George Lewis - In Hi-Fi Plus
DYEAR=1956
DGENRE=Jazz
TTITLE0=Original Dixieland One-Step
TTITLE1=Four or Five Times
TTITLE2=Struttin' With Some Barbeque
TTITLE3=Salty Dog
TTITLE4=That's A Plenty
TTITLE5=Move The Body Over
TTITLE6=Don't Give Up The Ship
TTITLE7=Didn't He Ramble
TTITLE8=She's Crying For Me
TTITLE9=Tishomingo Blues
TTITLE10=Should I?
TTITLE11=Mecca Flat Blues
TTITLE12=Till We Meet Again
TTITLE13=The Glory Of Love
TTITLE14=Good Morning Blues
TTITLE15=Smiles
EXTD=YEAR: 1956
EXTT0=
EXTT1=
EXTT2=
EXTT3=
EXTT4=
EXTT5=
EXTT6=
EXTT7=
EXTT8=
EXTT9=
EXTT10=
EXTT11=
EXTT12=
EXTT13=
EXTT14=
EXTT15=
PLAYORDER=
